<svg xmlns="http://www.w3.org/2000/svg" width="26.77" height="26.771" viewBox="0 0 26.77 26.771"><g transform="translate(-1.5 -1.5)"><path d="M8.943,3H20.828A5.943,5.943,0,0,1,26.77,8.943V20.828a5.943,5.943,0,0,1-5.943,5.943H8.943A5.943,5.943,0,0,1,3,20.828V8.943A5.943,5.943,0,0,1,8.943,3Z" fill="none" stroke="#f40403" stroke-linecap="round" stroke-linejoin="round" stroke-width="3"/><path d="M21.522,15.992a4.754,4.754,0,1,1-4.005-4.005,4.754,4.754,0,0,1,4.005,4.005Z" transform="translate(-1.882 -1.855)" fill="none" stroke="#f40403" stroke-linecap="round" stroke-linejoin="round" stroke-width="3"/><path d="M26.25,9.75h0" transform="translate(-4.828 -1.402)" fill="none" stroke="#f40403" stroke-linecap="round" stroke-linejoin="round" stroke-width="3"/></g></svg>